<svg id="Wide-reverse-red-outline" xmlns="http://www.w3.org/2000/svg" width="35" height="37" viewBox="-1 0 35 37" style="">
  <defs>
    <style>.cls-1{fill:#fff;}.cls-2{fill:#c8102e;}</style>
  </defs>
  <g style="" transform="matrix(0.973877, 0, 0, 0.994964, -1.700272, 1.99006)">
    <path class="cls-2" d="M33.43,16.51v-4.56h-9.31V5.46h1.94V.91H15.9V5.46h1.81v6.49H9.26V5.46h1.81V.91H.91V5.46h1.94v12.12l3.16,2.72h4.34v6.89h-1.94v4.55h10.17v-4.55h-1.81v-2.99h8.31v2.99h-1.81v4.55h10.16v-4.55h-1.94v-10.68h1.94Zm-11.25,2.87l2.83-2.51v2.51h-2.83Z" style="fill: rgb(255, 255, 255);"/>
    <polygon class="cls-1" points="18.57 16.51 16.76 16.51 16.76 19.44 20.73 19.44 23.26 17.19 23.26 4.6 25.2 4.6 25.2 1.77 16.76 1.77 16.76 4.6 18.57 4.6 18.57 16.51" style="fill: rgb(200, 16, 46);"/>
    <polygon class="cls-1" points="10.34 16.51 8.4 16.51 8.4 4.6 10.21 4.6 10.21 1.77 1.77 1.77 1.77 4.6 3.71 4.6 3.71 17.19 6.32 19.44 10.34 19.44 10.34 16.51" style="fill: rgb(200, 16, 46);"/>
    <polygon class="cls-1" points="32.56 15.65 32.56 12.82 24.12 12.82 24.12 15.65 25.93 15.65 25.93 20.3 15.9 20.3 15.9 15.65 17.71 15.65 17.71 12.82 9.26 12.82 9.26 15.65 11.2 15.65 11.2 28.05 9.26 28.05 9.26 30.88 17.71 30.88 17.71 28.05 15.9 28.05 15.9 23.34 25.93 23.34 25.93 28.05 24.12 28.05 24.12 30.88 32.56 30.88 32.56 28.05 30.63 28.05 30.63 15.65 32.56 15.65" style="fill: rgb(200, 16, 46);"/>
  </g>
</svg>